PathFileType	4	(X/Y/Z)	RBDS015\RBDS015runT35.trc
DataRate	CameraRate	NumFrames	NumMarkers	Units	OrigDataRate	OrigDataStartFrame	OrigNumFrames
150.000000	150.000000	4	33	mm	150.000000	1687	4500
Frame#	Time	L.ASIS			L.Heel.Bottom			L.Heel.Lateral			L.Heel.Top			L.Iliac.Crest			L.MT1			L.MT5			L.PSIS			L.Shank.Bottom.Lateral			L.Shank.Bottom.Medial			L.Shank.Top.Lateral			L.Shank.Top.Medial			L.Thigh.Bottom.Lateral			L.Thigh.Bottom.Medial			L.Thigh.Top.Lateral			L.Thigh.Top.Medial			R.ASIS			R.ASY			R.Heel.Bottom			R.Heel.Lateral			R.Heel.Top			R.Iliac.Crest			R.MT1			R.MT5			R.PSIS			R.Shank.Bottom.Lateral			R.Shank.Bottom.Medial			R.Shank.Top.Lateral			R.Shank.Top.Medial			R.Thigh.Bottom.Lateral			R.Thigh.Bottom.Medial			R.Thigh.Top.Lateral			R.Thigh.Top.Medial			
		X1	Y1	Z1	X2	Y2	Z2	X3	Y3	Z3	X4	Y4	Z4	X5	Y5	Z5	X6	Y6	Z6	X7	Y7	Z7	X8	Y8	Z8	X9	Y9	Z9	X10	Y10	Z10	X11	Y11	Z11	X12	Y12	Z12	X13	Y13	Z13	X14	Y14	Z14	X15	Y15	Z15	X16	Y16	Z16	X17	Y17	Z17	X18	Y18	Z18	X19	Y19	Z19	X20	Y20	Z20	X21	Y21	Z21	X22	Y22	Z22	X23	Y23	Z23	X24	Y24	Z24	X25	Y25	Z25	X26	Y26	Z26	X27	Y27	Z27	X28	Y28	Z28	X29	Y29	Z29	X30	Y30	Z30	X31	Y31	Z31	X32	Y32	Z32	X33	Y33	Z33	

1688	11.24666666666667	2163.444732098807	1023.962564651974	914.0904621727869	2160.034108836998	28.62341142355654	1015.570119995852	2180.933660656831	46.10385066147605	972.2628373571054	2169.560894336625	69.39245405617713	1016.97212820612	2077.369627929349	1105.359354936631	878.2408088387755	2373.476893077541	51.12527822361346	1035.188202182246	2332.904085541647	39.34516367376418	927.021268209611	1990.56202949642	1065.069258984745	1000.97878487415	2236.328765956981	184.6837931812801	942.9385352927615	2191.143477051653	188.516493401743	966.3548522891369	2236.606445733796	262.8151683014108	923.5230124640265	2190.603824128531	271.1875515403335	948.7582355264799	2219.766605396073	662.0323796717255	882.3389847049149	2166.061219960245	633.7440246662721	913.1319479855189	2162.817905465983	755.614847525164	867.4729285546634	2106.61734976025	725.6716620041242	901.9867274980977	2187.588966135967	1015.965506556859	1134.960879081336	1574.097908240282	286.1203438033642	1120.611988704819	1538.639635530962	473.4891270608161	1100.69681215812	1551.635666660298	447.4694010712307	1145.749868308879	1583.147555039141	459.2339413191223	1106.738096274446	2133.842141634444	1109.269190655401	1181.640366363856	1530.137665982232	261.4682537249572	1071.49304733376	1514.973205099316	305.8443104070093	1180.004634266951	2004.743037303788	1067.457275296447	1093.484432479311	1682.614335757481	416.339690061436	1165.822389744991	1670.442006427824	463.8217728233088	1139.538364191755	1758.472527467899	443.9892280290059	1177.113475320043	1745.601530042271	489.2289825159212	1150.939474115319	2050.845490614146	653.1640395933335	1198.029484799509	1993.812614593425	656.0662475655075	1152.639560577508	2048.269567310058	762.443597496048	1203.911101293239	1993.500098362127	765.8486011676664	1161.332103399909	
1689	11.25333333333333	2160.88071218644	1017.188359171319	914.7665444180656	2137.045522837371	30.13237676623391	1016.365650213345	2158.470510728549	47.95086905748664	973.4172103140611	2147.94762664581	70.79456105483816	1018.621210435841	2074.078308497175	1096.088809921156	879.1242083293245	2351.85884210009	46.91934847829766	1036.08899605845	2310.42133532418	38.07503589107024	927.6592503501645	1988.068179087192	1058.539460582421	1002.330438697979	2222.513697465957	183.9202306566793	944.2574450865519	2176.996780453511	190.1352742615504	966.636900405589	2227.044289391186	261.8853380807477	924.2966485354476	2180.885818261447	272.6589426037165	948.4887819242871	2220.163300440364	658.5739408959662	881.7332472653804	2166.876872608824	629.861956551527	912.8792025952461	2162.419981103569	751.7482011433365	867.1389026593209	2106.610644781159	721.3224438998659	901.9072376516768	2185.56447705252	1009.709690958749	1136.036296316904	1583.457121002482	288.9199879996386	1121.524391771221	1548.573849007045	476.4869683720667	1102.738426119639	1561.862659311739	450.3063461165326	1147.642238146646	1593.023541596121	461.9807383836825	1108.412517688904	2130.683171810313	1100.630855306977	1182.966950439365	1538.855786544736	264.723037575965	1072.657857694753	1525.011043682464	308.6205652434903	1181.515053665572	2002.119527338732	1060.064345368978	1094.356688609759	1692.885944904547	416.7262783619233	1166.96332761274	1681.859289909899	464.6729919877826	1141.101189114661	1769.332901645621	442.5182777368385	1178.55690734482	1757.558422056482	488.2416612447612	1152.765307210612	2057.771529563578	645.8670699812226	1199.568607133508	2000.265840101107	647.1300302395417	1154.677163187136	2052.31614272367	755.162579083321	1205.392633720138	1997.231164331329	756.9725670423483	1163.097127417523	
1690	11.26	2158.18436515907	1010.630471581478	915.3820012316462	2113.959495104385	31.58735744724306	1017.0755326626	2135.779794200288	49.82608907225098	974.4590002867158	2125.884426977519	72.15506345654471	1020.101098447057	2070.916917334377	1086.908397402969	879.8852861876107	2329.614857218683	44.22989949971657	1036.881482215467	2287.578513794805	37.75557308846943	928.2667866974347	1985.568387903806	1052.530111460261	1003.719970208921	2207.643081344598	183.4839050580646	945.4838762448481	2161.979917277476	191.9963489274385	966.9608406904063	2216.269009933066	261.1227132314889	925.0729868636561	2170.130558125933	274.1958938749193	948.3546272566072	2219.406700261063	654.9237854144806	881.2500611392034	2166.45525632803	626.0217344217137	912.7958921908195	2161.226675482979	747.8860117845289	866.8624087112879	2105.730531190706	717.234449142913	901.9632851125567	2183.403098114628	1003.252929173772	1137.165598858986	1594.277633762739	290.855502394096	1122.283807671152	1558.974422596616	478.430416499536	1104.891671081122	1572.746574287946	452.0798322341058	1149.553490773797	1603.438320022017	463.8999222101514	1110.128381691819	2127.243423938303	1091.920349724326	1184.306079043515	1549.130549803253	266.950047008797	1073.684576606549	1536.493081395171	310.1536873101137	1182.937911913444	1999.416951225284	1053.220143338915	1095.199489751369	1704.037061720968	416.5105233380224	1168.034972902607	1694.004367756124	464.9273412243382	1142.717207885797	1780.983778022202	440.6316487656584	1179.906608463564	1770.147196980522	486.8541260077958	1154.632719022379	2065.197431221564	639.0392980054659	1201.144404650318	2007.11158124716	638.5861686518463	1156.958151797877	2056.733949655921	748.2639400244148	1206.921490616003	2001.266198598223	748.3923410083551	1165.067844271146	
1691	11.26666666666667	2155.413061127702	1004.424221655383	915.8903689700467	2090.863504846069	32.86277361544733	1017.68066581118	2112.956040182291	51.55227018975148	975.3525321319827	2103.489432632411	73.35201908245192	1021.363049823112	2067.912292877743	1078.058524213851	880.4666493329615	2306.916399034302	42.79693883571301	1037.525991860624	2264.508497665751	38.10112529322962	928.8038479374301	1983.107610317324	1047.131600840328	1005.108086863138	2191.67727734659	183.1448758893766	946.5777859716501	2146.059221999875	193.8271452194241	967.3220598658852	2204.159742933699	260.315211982121	925.8326372799899	2158.223044754751	275.5452636360405	948.3719226297284	2217.363237953548	651.0373983232708	880.9504357291763	2164.607783261547	622.2038472734279	912.8802479039673	2159.177917294033	744.0240668952526	866.6958024636675	2103.869313712999	713.4368417841212	902.1585322085467	2181.141203018807	996.6927463033587	1138.335349172313	1606.446338663662	291.8750106605978	1122.852984816988	1569.8125102745	479.3073802973246	1107.094894514001	1584.231829043882	452.773253550833	1151.428141302837	1614.361556657748	464.9623755059007	1111.838540769976	2123.528101052843	1083.393126941908	1185.617842087626	1560.850494340114	268.0987670279723	1074.520261639726	1549.280569457962	310.4345857694757	1184.210987536406	1996.695805028695	1047.058183517598	1095.993823006454	1716.015793418501	415.6831643022353	1169.012350720151	1706.796249663365	464.5779178757509	1144.36158785051	1793.373207942759	438.3588594300664	1181.139197113276	1783.293995985968	485.0937633619719	1156.509329751571	2073.128810877701	632.8302178381356	1202.759047624068	2014.411193927954	630.566983796555	1159.434209578932	2061.530953163244	741.8832580404721	1208.473139585906	2005.635714078119	740.2292092788678	1167.214284127401	
